<svg width="28" height="28" viewBox="0 0 28 28" fill="none" xmlns="http://www.w3.org/2000/svg">
<g opacity="0.5">
<path d="M14.0137 10.6801C13.1961 10.6801 12.4305 10.9973 11.8508 11.5769C11.2738 12.1566 10.9539 12.9223 10.9539 13.7398C10.9539 14.5574 11.2738 15.323 11.8508 15.9027C12.4305 16.4797 13.1961 16.7996 14.0137 16.7996C14.8313 16.7996 15.5969 16.4797 16.1766 15.9027C16.7535 15.323 17.0734 14.5574 17.0734 13.7398C17.0734 12.9223 16.7535 12.1566 16.1766 11.5769C15.8934 11.2916 15.5564 11.0654 15.1851 10.9115C14.8138 10.7575 14.4156 10.6788 14.0137 10.6801ZM25.2875 17.1195L23.4992 15.591C23.584 15.0715 23.6277 14.541 23.6277 14.0133C23.6277 13.4855 23.584 12.9523 23.4992 12.4355L25.2875 10.907C25.4226 10.7914 25.5193 10.6373 25.5647 10.4654C25.6101 10.2935 25.6021 10.1118 25.5418 9.94453L25.5172 9.87343C25.025 8.4972 24.2876 7.22151 23.3406 6.1082L23.2914 6.05078C23.1764 5.91557 23.0232 5.81837 22.8518 5.772C22.6805 5.72563 22.4991 5.73226 22.3316 5.79101L20.1113 6.58125C19.291 5.90859 18.3777 5.37812 17.3879 5.00898L16.9586 2.6875C16.9262 2.51262 16.8414 2.35172 16.7154 2.2262C16.5894 2.10068 16.4281 2.01648 16.2531 1.98477L16.1793 1.97109C14.7574 1.71406 13.259 1.71406 11.8371 1.97109L11.7633 1.98477C11.5883 2.01648 11.4271 2.10068 11.3011 2.2262C11.175 2.35172 11.0902 2.51262 11.0578 2.6875L10.6258 5.01992C9.64532 5.392 8.73195 5.92118 7.9215 6.58671L5.68478 5.79101C5.51734 5.73179 5.33585 5.72492 5.16441 5.77132C4.99298 5.81772 4.83972 5.91519 4.72501 6.05078L4.67579 6.1082C3.7305 7.2227 2.99325 8.49806 2.49923 9.87343L2.47462 9.94453C2.35158 10.2863 2.45275 10.6691 2.72892 10.907L4.53908 12.4519C4.45431 12.966 4.41329 13.491 4.41329 14.0105C4.41329 14.5355 4.45431 15.0605 4.53908 15.5691L2.73439 17.1141C2.5993 17.2297 2.50261 17.3837 2.45719 17.5557C2.41176 17.7276 2.41975 17.9093 2.48009 18.0765L2.5047 18.1476C2.99962 19.523 3.7297 20.7945 4.68126 21.9129L4.73048 21.9703C4.84547 22.1055 4.99873 22.2027 5.17007 22.2491C5.3414 22.2954 5.52276 22.2888 5.69025 22.2301L7.92697 21.4344C8.74181 22.1043 9.64962 22.6347 10.6313 23.0012L11.0633 25.3336C11.0957 25.5085 11.1805 25.6693 11.3065 25.7949C11.4325 25.9204 11.5938 26.0046 11.7688 26.0363L11.8426 26.05C13.2785 26.3084 14.7489 26.3084 16.1848 26.05L16.2586 26.0363C16.4336 26.0046 16.5948 25.9204 16.7208 25.7949C16.8468 25.6693 16.9317 25.5085 16.9641 25.3336L17.3934 23.0121C18.3832 22.6402 19.2965 22.1125 20.1168 21.4398L22.3371 22.2301C22.5046 22.2893 22.6861 22.2962 22.8575 22.2498C23.0289 22.2034 23.1822 22.1059 23.2969 21.9703L23.3461 21.9129C24.2977 20.789 25.0277 19.523 25.5227 18.1476L25.5473 18.0765C25.6649 17.7375 25.5637 17.3574 25.2875 17.1195ZM14.0137 18.5469C11.3586 18.5469 9.20665 16.3949 9.20665 13.7398C9.20665 11.0848 11.3586 8.93281 14.0137 8.93281C16.6688 8.93281 18.8207 11.0848 18.8207 13.7398C18.8207 16.3949 16.6688 18.5469 14.0137 18.5469Z" fill="white"/>
</g>
</svg>
