<svg width="15" height="14" viewBox="0 0 15 14" fill="none" xmlns="http://www.w3.org/2000/svg">
<path fill-rule="evenodd" clip-rule="evenodd" d="M1 2.53257V11.4674C1 12.2337 1.73916 13 2.60023 13H12.3998C12.8036 13 13.2456 12.8084 13.5047 12.5479C13.7638 12.2874 14 11.8812 14 11.4674V2.53257C14 2.09579 13.7333 1.68966 13.5123 1.45977C13.2837 1.22989 12.8646 1 12.3998 1H2.60023C2.15064 1 1.72392 1.22222 1.49531 1.45211C1.27433 1.68199 1 2.08812 1 2.53257Z" stroke="white"/>
<path fill-rule="evenodd" clip-rule="evenodd" d="M6.94336 11.3526C6.94336 11.4062 6.9586 11.4292 7.01956 11.4292H10.7992C11.1268 11.4292 11.3097 11.2376 11.3097 10.9158V9.71274C11.3097 9.44454 11.1649 9.22998 10.9058 9.22998H6.94336V11.3526Z" fill="white"/>
<path fill-rule="evenodd" clip-rule="evenodd" d="M3.68945 6.44843V7.64383C3.68945 7.97333 3.87234 8.15724 4.2 8.15724H5.87644V5.95801H4.09332C3.83424 5.95801 3.68945 6.18023 3.68945 6.44843Z" fill="white"/>
<path fill-rule="evenodd" clip-rule="evenodd" d="M6.94336 8.08061C6.94336 8.14192 6.9586 8.15724 7.01956 8.15724H10.7992C11.1268 8.15724 11.3097 7.97333 11.3097 7.64383V6.44843C11.3097 6.18023 11.1649 5.95801 10.9058 5.95801H6.94336V8.08061Z" fill="white"/>
<path fill-rule="evenodd" clip-rule="evenodd" d="M3.68945 9.71274V10.9158C3.68945 11.2376 3.87234 11.4292 4.2 11.4292H5.87644V9.22998H4.09332C3.83424 9.22998 3.68945 9.44454 3.68945 9.71274Z" fill="white"/>
<path fill-rule="evenodd" clip-rule="evenodd" d="M6.94336 4.69341C6.94336 4.75471 6.9586 4.77003 7.01956 4.77003H10.7992C11.1268 4.77003 11.3097 4.58613 11.3097 4.25662V3.06122C11.3097 2.79302 11.1649 2.5708 10.9058 2.5708H6.94336V4.69341Z" fill="white"/>
<path fill-rule="evenodd" clip-rule="evenodd" d="M3.68945 3.06122V4.25662C3.68945 4.58613 3.87234 4.77003 4.2 4.77003H5.87644V2.5708H4.09332C3.83424 2.5708 3.68945 2.79302 3.68945 3.06122Z" fill="white"/>
</svg>
