<svg width="14" height="14" viewBox="0 0 14 14" fill="none" xmlns="http://www.w3.org/2000/svg">
<path d="M9.91667 10.4957V13.9957H12.25C13.2165 13.9957 14 13.2122 14 12.2457V6.92511C14.0001 6.62206 13.8824 6.33084 13.6716 6.11311L8.71443 0.754002C7.83975 -0.192366 6.36352 -0.250471 5.41715 0.624201C5.3722 0.665764 5.32889 0.709049 5.28735 0.754002L0.338926 6.11136C0.121762 6.33 -8.19898e-05 6.62569 4.13938e-08 6.93386V12.2457C4.13938e-08 13.2122 0.783508 13.9957 1.75 13.9957H4.08332V10.4957C4.09423 8.90504 5.37849 7.6061 6.92907 7.5687C8.53152 7.53003 9.90445 8.85109 9.91667 10.4957Z" fill="#007AF3"/>
<path d="M7 8.74561C6.03351 8.74561 5.25 9.52911 5.25 10.4956V13.9956H8.75V10.4956C8.75 9.52911 7.96649 8.74561 7 8.74561Z" fill="#007AF3"/>
</svg>
