<svg width="22" height="20" viewBox="0 0 22 20" fill="none" xmlns="http://www.w3.org/2000/svg">
<path d="M19.3437 14.7598H17.696C17.5835 14.7598 17.4781 14.8052 17.4078 14.8853C17.2437 15.0692 17.0679 15.2466 16.8828 15.4153C16.1255 16.1151 15.2285 16.6727 14.2414 17.0574C13.2187 17.4561 12.1195 17.6607 11.0093 17.6589C9.88668 17.6589 8.79918 17.4555 7.77731 17.0574C6.79019 16.6727 5.89318 16.1151 5.1359 15.4153C4.37727 14.718 3.77235 13.8914 3.35466 12.9814C2.92106 12.0382 2.70309 11.0365 2.70309 10.0002C2.70309 8.96389 2.92341 7.96221 3.35466 7.01894C3.77184 6.10812 4.37184 5.28817 5.1359 4.58504C5.89996 3.88192 6.78824 3.32807 7.77731 2.94297C8.79918 2.5449 9.88668 2.34153 11.0093 2.34153C12.132 2.34153 13.2195 2.54273 14.2414 2.94297C15.2304 3.32807 16.1187 3.88192 16.8828 4.58504C17.0679 4.75596 17.2414 4.93336 17.4078 5.11509C17.4781 5.19514 17.5859 5.24057 17.696 5.24057H19.3437C19.4914 5.24057 19.5828 5.08913 19.5007 4.97447C17.7031 2.39562 14.5578 0.688645 10.9836 0.697298C5.36793 0.710279 0.865597 4.91822 0.921847 10.0954C0.978097 15.1903 5.4734 19.3031 11.0093 19.3031C14.5742 19.3031 17.7054 17.5983 19.5007 15.0259C19.5804 14.9113 19.4914 14.7598 19.3437 14.7598ZM21.4273 9.86389L18.1015 7.44081C17.9773 7.34995 17.7968 7.43216 17.7968 7.57711V9.22134H10.4375C10.3343 9.22134 10.25 9.29923 10.25 9.39442V10.606C10.25 10.7012 10.3343 10.779 10.4375 10.779H17.7968V12.4233C17.7968 12.5682 17.9796 12.6504 18.1015 12.5596L21.4273 10.1365C21.4497 10.1203 21.4678 10.0996 21.4803 10.076C21.4927 10.0524 21.4992 10.0265 21.4992 10.0002C21.4992 9.97392 21.4927 9.948 21.4803 9.92438C21.4678 9.90077 21.4497 9.88008 21.4273 9.86389Z" fill="#0A183D" fill-opacity="0.6"/>
</svg>
