<svg width="24" height="24" viewBox="0 0 24 24" fill="none" xmlns="http://www.w3.org/2000/svg">
<path d="M20.3437 16.7608H18.696C18.5835 16.7608 18.4781 16.8062 18.4078 16.8863C18.2437 17.0702 18.0679 17.2476 17.8828 17.4163C17.1255 18.116 16.2285 18.6737 15.2414 19.0584C14.2187 19.4571 13.1195 19.6617 12.0093 19.6598C10.8867 19.6598 9.79918 19.4565 8.77731 19.0584C7.79019 18.6737 6.89318 18.116 6.1359 17.4163C5.37727 16.719 4.77235 15.8924 4.35466 14.9824C3.92106 14.0391 3.70309 13.0375 3.70309 12.0012C3.70309 10.9649 3.92341 9.96319 4.35466 9.01992C4.77184 8.1091 5.37184 7.28914 6.1359 6.58602C6.89996 5.88289 7.78824 5.32905 8.77731 4.94395C9.79918 4.54587 10.8867 4.34251 12.0093 4.34251C13.132 4.34251 14.2195 4.54371 15.2414 4.94395C16.2304 5.32905 17.1187 5.88289 17.8828 6.58602C18.0679 6.75693 18.2414 6.93434 18.4078 7.11607C18.4781 7.19612 18.5859 7.24155 18.696 7.24155H20.3437C20.4914 7.24155 20.5828 7.09011 20.5007 6.97544C18.7031 4.39659 15.5578 2.68962 11.9836 2.69827C6.36793 2.71126 1.8656 6.91919 1.92185 12.0964C1.9781 17.1913 6.4734 21.3041 12.0093 21.3041C15.5742 21.3041 18.7054 19.5993 20.5007 17.0269C20.5804 16.9122 20.4914 16.7608 20.3437 16.7608ZM22.4273 11.8649L19.1015 9.44179C18.9773 9.35092 18.7968 9.43314 18.7968 9.57809V11.2223H11.4375C11.3343 11.2223 11.25 11.3002 11.25 11.3954V12.6069C11.25 12.7021 11.3343 12.78 11.4375 12.78H18.7968V14.4242C18.7968 14.5692 18.9796 14.6514 19.1015 14.5605L22.4273 12.1375C22.4497 12.1213 22.4678 12.1006 22.4803 12.077C22.4927 12.0534 22.4992 12.0274 22.4992 12.0012C22.4992 11.9749 22.4927 11.949 22.4803 11.9254C22.4678 11.9017 22.4497 11.8811 22.4273 11.8649Z" fill="white"/>
</svg>
