<svg width="18" height="22" viewBox="0 0 18 22" fill="none" xmlns="http://www.w3.org/2000/svg">
<path d="M11.3699 0.578068C10.2449 0.264568 9.36592 1.10457 9.05241 1.88607C8.69242 2.78607 8.37292 3.41607 7.99341 4.17207C7.75942 4.63707 7.50141 5.15307 7.19391 5.80707C6.48141 7.32057 5.77191 8.29107 5.25441 8.87307C5.06635 9.08857 4.86335 9.29057 4.64691 9.47757C4.59776 9.51924 4.54724 9.55927 4.49542 9.59757L4.47141 9.61557L1.66341 11.2731C1.05552 11.6317 0.593532 12.1932 0.358687 12.8587C0.123843 13.5243 0.131182 14.2514 0.379415 14.9121L1.15941 16.9881C1.31976 17.4143 1.57502 17.7984 1.90586 18.1113C2.2367 18.4242 2.63444 18.6577 3.06891 18.7941L11.1029 21.3186C11.5784 21.4679 12.0789 21.521 12.5752 21.4747C13.0714 21.4284 13.5535 21.2836 13.9931 21.0488C14.4328 20.8141 14.8212 20.494 15.1357 20.1074C15.4502 19.7208 15.6845 19.2753 15.8249 18.7971L17.8709 11.8281C18.0024 11.3806 18.0278 10.9086 17.945 10.4496C17.8623 9.99059 17.6736 9.55721 17.394 9.18387C17.1145 8.81053 16.7517 8.50752 16.3345 8.2989C15.9174 8.09028 15.4573 7.98179 14.9909 7.98207H12.9149C13.0139 7.64307 13.1144 7.26507 13.2074 6.87207C13.4039 6.03057 13.5719 5.06757 13.5554 4.26657C13.5419 3.51957 13.4654 2.73657 13.1594 2.07357C12.8309 1.35957 12.2564 0.824068 11.3714 0.578068H11.3699Z" fill="#0A183D" fill-opacity="0.5"/>
</svg>
