<svg width="16" height="16" viewBox="0 0 16 16" fill="none" xmlns="http://www.w3.org/2000/svg">
<g clip-path="url(#clip0_2963_15355)">
<path d="M15.182 5.14726C14.8694 4.787 14.483 4.49812 14.0491 4.30017C13.6151 4.10222 13.1437 3.99983 12.6667 3.99993H10.0073L10.2313 2.63926C10.3106 2.1601 10.215 1.66842 9.9619 1.25389C9.70884 0.839356 9.3152 0.529602 8.85279 0.381121C8.39037 0.23264 7.88999 0.255327 7.4429 0.445043C6.99582 0.634759 6.63183 0.978864 6.41732 1.41459L5.33331 3.61126V13.9999H12.2C13.0023 13.9967 13.7768 13.7055 14.3825 13.1794C14.9883 12.6533 15.3851 11.9272 15.5007 11.1333L15.9707 7.79993C16.0371 7.32708 16.0011 6.84547 15.865 6.38777C15.7289 5.93007 15.496 5.507 15.182 5.14726Z" fill="white"/>
<path d="M0 7.33333L0 10.6667C0.00105857 11.5504 0.352588 12.3976 0.97748 13.0225C1.60237 13.6474 2.4496 13.9989 3.33333 14H4V4H3.33333C2.4496 4.00106 1.60237 4.35259 0.97748 4.97748C0.352588 5.60237 0.00105857 6.4496 0 7.33333H0Z" fill="white"/>
</g>
<defs>
<clipPath id="clip0_2963_15355">
<rect width="16" height="16" fill="white"/>
</clipPath>
</defs>
</svg>
