<svg width="20" height="20" viewBox="0 0 20 20" fill="none" xmlns="http://www.w3.org/2000/svg">
<path d="M17.5833 0.25H2.41667C1.225 0.25 0.25 1.225 0.25 2.41667V17.5833C0.25 18.775 1.225 19.75 2.41667 19.75H17.5833C18.775 19.75 19.75 18.775 19.75 17.5833V2.41667C19.75 1.225 18.775 0.25 17.5833 0.25ZM8.91667 15.4167H4.58333C3.9875 15.4167 3.5 14.9292 3.5 14.3333C3.5 13.7375 3.9875 13.25 4.58333 13.25H8.91667C9.5125 13.25 10 13.7375 10 14.3333C10 14.9292 9.5125 15.4167 8.91667 15.4167ZM12.1667 11.0833H7.83333C7.2375 11.0833 6.75 10.5958 6.75 10C6.75 9.40417 7.2375 8.91667 7.83333 8.91667H12.1667C12.7625 8.91667 13.25 9.40417 13.25 10C13.25 10.5958 12.7625 11.0833 12.1667 11.0833ZM15.4167 6.75H11.0833C10.4875 6.75 10 6.2625 10 5.66667C10 5.07083 10.4875 4.58333 11.0833 4.58333H15.4167C16.0125 4.58333 16.5 5.07083 16.5 5.66667C16.5 6.2625 16.0125 6.75 15.4167 6.75Z" fill="#0A183D" fill-opacity="0.5"/>
</svg>
