<svg width="28" height="28" viewBox="0 0 28 28" fill="none" xmlns="http://www.w3.org/2000/svg">
<path d="M22.1667 3.5H5.83333C4.55 3.5 3.5 4.55 3.5 5.83333V22.1667C3.5 23.45 4.55 24.5 5.83333 24.5H22.1667C23.45 24.5 24.5 23.45 24.5 22.1667V5.83333C24.5 4.55 23.45 3.5 22.1667 3.5ZM12.8333 19.8333H8.16667C7.525 19.8333 7 19.3083 7 18.6667C7 18.025 7.525 17.5 8.16667 17.5H12.8333C13.475 17.5 14 18.025 14 18.6667C14 19.3083 13.475 19.8333 12.8333 19.8333ZM16.3333 15.1667H11.6667C11.025 15.1667 10.5 14.6417 10.5 14C10.5 13.3583 11.025 12.8333 11.6667 12.8333H16.3333C16.975 12.8333 17.5 13.3583 17.5 14C17.5 14.6417 16.975 15.1667 16.3333 15.1667ZM19.8333 10.5H15.1667C14.525 10.5 14 9.975 14 9.33333C14 8.69167 14.525 8.16667 15.1667 8.16667H19.8333C20.475 8.16667 21 8.69167 21 9.33333C21 9.975 20.475 10.5 19.8333 10.5Z" fill="white" fill-opacity="0.5"/>
</svg>
