<svg width="24" height="26" viewBox="0 0 24 26" fill="none" xmlns="http://www.w3.org/2000/svg">
<path d="M17.5 4.875C15.55 4.875 13.45 5.30833 12 6.5C10.55 5.30833 8.45 4.875 6.5 4.875C5.05 4.875 3.51 5.11333 2.22 5.73083C1.49 6.08833 1 6.8575 1 7.735V19.955C1 21.3633 2.22 22.4033 3.48 22.0567C4.46 21.7858 5.5 21.6667 6.5 21.6667C8.06 21.6667 9.72 21.9483 11.06 22.6633C11.66 22.9883 12.34 22.9883 12.93 22.6633C14.27 21.9375 15.93 21.6667 17.49 21.6667C18.49 21.6667 19.53 21.7858 20.51 22.0567C21.77 22.4142 22.99 21.3742 22.99 19.955V7.735C22.99 6.8575 22.5 6.08833 21.77 5.73083C20.49 5.11333 18.95 4.875 17.5 4.875ZM21 18.6658C21 19.3483 20.42 19.8467 19.8 19.7275C19.05 19.5758 18.27 19.5108 17.5 19.5108C15.8 19.5108 13.35 20.215 12 21.1358V8.66667C13.35 7.74583 15.8 7.04167 17.5 7.04167C18.42 7.04167 19.33 7.13917 20.2 7.345C20.66 7.45333 21 7.8975 21 8.40667V18.6658Z" fill="white" fill-opacity="0.5"/>
<path d="M13.9799 11.9275C13.6599 11.9275 13.3699 11.7108 13.2699 11.3642C13.1399 10.9417 13.3599 10.4758 13.7499 10.3458C15.2899 9.80417 17.2799 9.63084 19.1099 9.85834C19.5199 9.91251 19.8199 10.3133 19.7699 10.7575C19.7199 11.2017 19.3499 11.5267 18.9399 11.4725C17.3199 11.2667 15.5499 11.4292 14.2099 11.895C14.1299 11.9058 14.0499 11.9275 13.9799 11.9275ZM13.9799 14.8092C13.6599 14.8092 13.3699 14.5925 13.2699 14.2458C13.1399 13.8233 13.3599 13.3575 13.7499 13.2275C15.2799 12.6858 17.2799 12.5125 19.1099 12.74C19.5199 12.7942 19.8199 13.195 19.7699 13.6392C19.7199 14.0833 19.3499 14.4083 18.9399 14.3542C17.3199 14.1483 15.5499 14.3108 14.2099 14.7767C14.1347 14.7974 14.0575 14.8083 13.9799 14.8092ZM13.9799 17.6908C13.6599 17.6908 13.3699 17.4742 13.2699 17.1275C13.1399 16.705 13.3599 16.2392 13.7499 16.1092C15.2799 15.5675 17.2799 15.3942 19.1099 15.6217C19.5199 15.6758 19.8199 16.0767 19.7699 16.5208C19.7199 16.965 19.3499 17.2792 18.9399 17.2358C17.3199 17.03 15.5499 17.1925 14.2099 17.6583C14.1347 17.6791 14.0575 17.69 13.9799 17.6908Z" fill="white" fill-opacity="0.5"/>
</svg>
