<svg width="119" height="41" viewBox="0 0 119 41" fill="none" xmlns="http://www.w3.org/2000/svg">
<rect width="119" height="41" rx="5" fill="#128C7E"/>
<path d="M46.551 22.4904H46.5155L44.5759 14.659H42.2475L40.284 22.3962H40.2486L38.4513 14.6705H35.9561L38.9599 26.0333H41.4788L43.3708 18.3083H43.4062L45.322 26.0327H47.7934L50.8448 14.6705H48.3953L46.5503 22.491L46.551 22.4904ZM58.4475 18.5096C58.2228 18.2135 57.9157 17.9885 57.5372 17.8224C57.1464 17.6564 56.6501 17.5737 56.0585 17.5737C55.6336 17.5737 55.2075 17.6801 54.7581 17.9051C54.3088 18.1186 53.9534 18.4737 53.658 18.9481H53.611V14.6705H51.352V26.0333H53.611V21.7205C53.611 20.8788 53.7526 20.2865 54.0249 19.9192C54.2966 19.5519 54.7459 19.3744 55.3613 19.3744C55.9053 19.3744 56.2716 19.5404 56.4847 19.8718C56.6971 20.2038 56.804 20.7135 56.804 21.3885V26.0333H59.0622V20.9737C59.0645 20.5086 59.0209 20.0444 58.9322 19.5878C58.826 19.1609 58.6721 18.8058 58.4475 18.5096ZM67.7303 24.1968V19.9192C67.7303 19.4218 67.6241 19.0192 67.3994 18.7224C67.1741 18.4147 66.8909 18.1897 66.5478 18.0115C66.1813 17.839 65.7906 17.7231 65.389 17.6679C64.9737 17.6113 64.5548 17.5837 64.1356 17.5853C63.6863 17.5853 63.2247 17.6327 62.7754 17.7154C62.326 17.8103 61.9243 17.9526 61.5574 18.166C61.2021 18.3763 60.8991 18.6638 60.671 19.0071C60.4341 19.3628 60.304 19.8013 60.2686 20.3224H62.5275C62.5745 19.8718 62.7162 19.5641 62.9769 19.3628C63.2247 19.1731 63.5801 19.0782 64.0294 19.0782C64.2303 19.0782 64.4195 19.0897 64.5966 19.1135C64.7742 19.1372 64.9281 19.1968 65.0581 19.2673C65.1882 19.3506 65.2944 19.4571 65.3774 19.5994C65.4598 19.7417 65.4952 19.9314 65.4952 20.1801C65.5075 20.4173 65.4366 20.5949 65.2944 20.7135C65.1149 20.8458 64.9094 20.9386 64.6912 20.9859C64.4433 21.0449 64.1472 21.0923 63.8157 21.1282C63.4854 21.1635 63.1539 21.1987 62.8114 21.2583C62.4683 21.3058 62.1368 21.3885 61.8059 21.4718C61.4903 21.5574 61.1907 21.6933 60.9188 21.8744C60.6587 22.0519 60.4463 22.3013 60.2802 22.5974C60.1148 22.9051 60.0324 23.2846 60.0324 23.7468C60.0324 24.1731 60.1032 24.5404 60.2448 24.8481C60.3864 25.1564 60.5879 25.4058 60.8364 25.6064C61.0849 25.8083 61.392 25.9622 61.7235 26.0571C62.0817 26.1545 62.4517 26.2021 62.823 26.1987C63.3316 26.1987 63.8279 26.1282 64.3127 25.9744C64.798 25.8205 65.2236 25.5705 65.5783 25.1923C65.5899 25.334 65.6021 25.4647 65.6375 25.5949C65.6613 25.725 65.6967 25.8558 65.7437 25.9859H68.0265C67.9196 25.8199 67.8488 25.559 67.8011 25.2276C67.752 24.8862 67.7283 24.5417 67.7303 24.1968ZM65.4836 22.8462C65.4836 22.9763 65.4721 23.1423 65.4482 23.3551C65.4225 23.5771 65.3502 23.7911 65.2358 23.9833C65.1174 24.1846 64.9397 24.3628 64.6912 24.5167C64.4433 24.6705 64.1002 24.7417 63.6625 24.7417C63.4854 24.7417 63.3078 24.7301 63.1423 24.6942C62.9838 24.6659 62.8317 24.6097 62.693 24.5282C62.5644 24.4448 62.4587 24.3309 62.3853 24.1968C62.3102 24.0376 62.2738 23.863 62.2791 23.6872C62.2791 23.4737 62.3145 23.2962 62.3853 23.166C62.4561 23.0237 62.563 22.9173 62.6814 22.8224C62.8073 22.7237 62.9517 22.6511 63.1063 22.609C63.2724 22.5615 63.4378 22.5141 63.6032 22.4788C63.7809 22.4429 63.958 22.4192 64.1472 22.3955C64.3249 22.3718 64.5019 22.3481 64.668 22.3128C64.8335 22.2776 64.9867 22.2423 65.1289 22.1942C65.2595 22.1514 65.3801 22.0829 65.4836 21.9929V22.8455V22.8462ZM71.9405 15.334H69.6815V17.7987H68.3219V19.3154H69.6815V24.1615C69.6815 24.5756 69.7523 24.9077 69.883 25.1679C70.0173 25.4112 70.2127 25.6155 70.4502 25.7609C70.6871 25.9026 70.9587 25.9853 71.278 26.0333C71.5857 26.0808 71.9166 26.1038 72.2713 26.1038C72.496 26.1038 72.7207 26.1038 72.9576 26.0923C73.1938 26.0808 73.4069 26.0571 73.5962 26.0333V24.2795C73.4867 24.3019 73.376 24.3177 73.2647 24.3269C73.1468 24.3391 73.0284 24.3391 72.8984 24.3391C72.5198 24.3391 72.2598 24.2795 72.1413 24.1494C72.0113 24.0192 71.952 23.7699 71.952 23.391V19.3154H73.6078V17.7987H71.952V15.3333H71.9405V15.334ZM81.2587 22.4192C81.1105 22.1627 80.9091 21.9407 80.6678 21.7679C80.414 21.5865 80.1352 21.4426 79.8399 21.341C79.5248 21.2363 79.2052 21.1454 78.882 21.0686C78.5627 20.9981 78.255 20.9263 77.9479 20.8673C77.671 20.8161 77.3982 20.7447 77.1317 20.6538C76.8954 20.5705 76.7061 20.4763 76.5523 20.3462C76.4791 20.2858 76.4208 20.2094 76.3818 20.1231C76.3429 20.0368 76.3243 19.9427 76.3276 19.8481C76.3276 19.6827 76.363 19.5404 76.4576 19.4455C76.5413 19.3477 76.6466 19.2707 76.7654 19.2205C76.8832 19.1731 77.0254 19.1372 77.1671 19.1135C77.3209 19.1019 77.451 19.0897 77.581 19.0897C77.9833 19.0897 78.338 19.1609 78.6335 19.3154C78.929 19.4692 79.0951 19.7654 79.1305 20.1917H81.271C81.2233 19.6827 81.0933 19.2679 80.8802 18.9244C80.674 18.597 80.395 18.3213 80.0646 18.1186C79.7191 17.91 79.3385 17.7653 78.9412 17.6917C78.5168 17.6062 78.0849 17.5626 77.6518 17.5615C77.2025 17.5615 76.777 17.5974 76.3514 17.6801C75.9253 17.7635 75.5474 17.8936 75.2043 18.0949C74.8659 18.2875 74.5844 18.5654 74.388 18.9006C74.1871 19.2442 74.0809 19.6705 74.0809 20.2038C74.0809 20.559 74.1517 20.8673 74.3056 21.116C74.4472 21.3647 74.6487 21.5667 74.8966 21.7321C75.145 21.8987 75.4174 22.0282 75.7366 22.1353C76.0437 22.2417 76.363 22.325 76.6945 22.3955C77.4986 22.5622 78.125 22.7391 78.5743 22.9051C79.0236 23.0712 79.2483 23.3321 79.2483 23.6635C79.2483 23.8647 79.2013 24.0308 79.1067 24.1609C79.012 24.2917 78.8936 24.3981 78.752 24.4814C78.6044 24.5645 78.4448 24.6244 78.2788 24.659C78.1157 24.6947 77.9495 24.7145 77.7825 24.7179C77.5572 24.7179 77.3447 24.6942 77.1439 24.6346C76.9469 24.5913 76.7615 24.5068 76.5999 24.3865C76.4405 24.2737 76.3073 24.1281 76.2092 23.9596C76.1058 23.7664 76.0531 23.5503 76.056 23.3314H73.9155C73.9387 23.8891 74.0571 24.3391 74.2934 24.7064C74.5125 25.0658 74.8121 25.3699 75.1689 25.5949C75.5236 25.8199 75.9253 25.9737 76.3868 26.0692C76.8459 26.1644 77.3136 26.2119 77.7825 26.2109C78.2434 26.2109 78.7043 26.1635 79.1537 26.0808C79.603 25.9859 80.0054 25.8321 80.3485 25.6064C80.7032 25.3821 80.9748 25.0853 81.1995 24.7301C81.4126 24.3628 81.5188 23.9122 81.5188 23.3673C81.4718 23 81.401 22.6801 81.2587 22.4192ZM85.7289 14.6705L81.448 26.0333H83.9554L84.8418 23.5096H89.0758L89.9268 26.0333H92.5166L88.2833 14.6705H85.7289ZM85.4927 21.6372L86.9707 17.4667H87.0061L88.4372 21.6372H85.4927ZM100.321 18.9128C100.01 18.5098 99.6145 18.1784 99.1627 17.941C98.7018 17.6917 98.1456 17.5737 97.4954 17.5737C96.9868 17.5737 96.5253 17.6679 96.0998 17.8699C95.6742 18.0712 95.3311 18.391 95.0472 18.841H95.0118V17.7865H92.8713V28.8891H95.1303V24.9904H95.1657C95.4267 25.3843 95.7906 25.6998 96.2182 25.9032C96.6437 26.1045 97.1169 26.2109 97.6254 26.2109C98.2286 26.2109 98.7604 26.0923 99.2097 25.8558C99.6493 25.6305 100.033 25.3109 100.334 24.9199C100.641 24.5288 100.854 24.0782 101.008 23.5686C101.149 23.059 101.232 22.5263 101.232 21.9808C101.235 21.4125 101.16 20.8465 101.008 20.2987C100.859 19.8014 100.627 19.3327 100.321 18.9122V18.9128ZM98.8672 22.9051C98.813 23.2008 98.7003 23.4827 98.5357 23.7346C98.3825 23.9718 98.181 24.1731 97.9325 24.3154C97.6847 24.4692 97.3769 24.5397 97.0107 24.5397C96.6559 24.5397 96.3482 24.4692 96.0882 24.3154C95.8374 24.1764 95.6259 23.9766 95.4734 23.7346C95.3195 23.4974 95.2127 23.2135 95.1418 22.9051C95.0709 22.5862 95.0353 22.2606 95.0356 21.934C95.0356 21.5904 95.071 21.2699 95.1303 20.95C95.1895 20.6301 95.3073 20.3462 95.4611 20.109C95.615 19.8603 95.8158 19.6705 96.0643 19.5167C96.3128 19.3628 96.6199 19.2795 96.9868 19.2795C97.3415 19.2795 97.6493 19.3628 97.8971 19.5167C98.1456 19.6705 98.3464 19.8718 98.5125 20.1205C98.6657 20.3699 98.7842 20.6538 98.855 20.9737C98.9265 21.2942 98.9619 21.6135 98.9619 21.9455C98.9619 22.2654 98.938 22.5853 98.8672 22.9051ZM109.983 20.3218C109.829 19.7891 109.604 19.3154 109.297 18.9122C108.985 18.5096 108.59 18.1784 108.139 17.941C107.677 17.6917 107.121 17.5737 106.471 17.5737C105.962 17.5737 105.501 17.6679 105.076 17.8699C104.649 18.0712 104.307 18.391 104.023 18.841H103.988V17.7865H101.847V28.8891H104.105V24.9904H104.141C104.402 25.3842 104.766 25.6998 105.193 25.9032C105.633 26.1091 106.114 26.2142 106.601 26.2109C107.204 26.2109 107.725 26.0923 108.186 25.8558C108.625 25.6307 109.009 25.311 109.309 24.9199C109.622 24.5187 109.851 24.0592 109.983 23.5686C110.135 23.0531 110.211 22.5181 110.208 21.9808C110.208 21.4122 110.125 20.8558 109.983 20.3224V20.3218ZM107.855 22.9051C107.799 23.1984 107.691 23.4794 107.535 23.7346C107.381 23.9718 107.181 24.1731 106.932 24.3154C106.684 24.4692 106.376 24.5397 106.01 24.5397C105.655 24.5397 105.347 24.4692 105.087 24.3154C104.837 24.1762 104.625 23.9765 104.472 23.7346C104.319 23.4974 104.212 23.2135 104.141 22.9051C104.07 22.5863 104.034 22.2606 104.035 21.934C104.035 21.5904 104.07 21.2699 104.129 20.95C104.184 20.6508 104.296 20.3651 104.461 20.109C104.614 19.8603 104.815 19.6705 105.063 19.5167C105.312 19.3628 105.62 19.2795 105.998 19.2795C106.353 19.2795 106.66 19.3628 106.908 19.5167C107.157 19.6705 107.358 19.8718 107.523 20.1205C107.677 20.3699 107.795 20.6538 107.866 20.9737C107.937 21.2942 107.972 21.6135 107.972 21.9455C107.949 22.2654 107.913 22.5853 107.855 22.9051Z" fill="white"/>
<path d="M8.81561 32.1115L10.4713 26.0808C9.45339 24.3095 8.91936 22.3036 8.92248 20.2628C8.91024 13.8295 14.1253 8.60449 20.5351 8.60449C23.645 8.60449 26.5657 9.81282 28.7654 12.0167C30.9651 14.2205 32.1709 17.1468 32.1709 20.2628C32.1709 26.6846 26.9565 31.9103 20.5467 31.9103C18.6031 31.9128 16.6908 31.4235 14.9892 30.4885L8.81561 32.1115ZM15.2615 28.391L15.6162 28.6045C17.1042 29.4872 18.8037 29.9538 20.5357 29.9551C25.857 29.9551 30.1971 25.6064 30.1971 20.275C30.1971 17.6917 29.1922 15.2513 27.3711 13.4263C25.5486 11.6026 23.1127 10.5833 20.5344 10.5833C15.201 10.5833 10.8608 14.9321 10.8608 20.2635C10.8608 22.0885 11.3694 23.8776 12.3395 25.4173L12.5642 25.7853L11.5825 29.3635L15.2602 28.3917L15.2615 28.391Z" fill="white"/>
<path d="M9.21796 31.7083L10.8145 25.8795C9.83002 24.1699 9.31222 22.2335 9.31259 20.2628C9.31259 14.0667 14.3506 9.01923 20.5351 9.01923C23.5388 9.01923 26.3533 10.1923 28.4815 12.3128C29.5274 13.3577 30.3561 14.5977 30.9203 15.9619C31.4844 17.326 31.7729 18.7875 31.7692 20.2628C31.7692 26.4596 26.7318 31.5071 20.5467 31.5071C18.6669 31.5071 16.8219 31.0327 15.1778 30.1327L9.21796 31.7083Z" fill="url(#paint0_linear_356_7887)"/>
<path d="M8.81561 32.1115L10.4713 26.0808C9.45339 24.3095 8.91936 22.3036 8.92248 20.2628C8.91024 13.8295 14.1253 8.60449 20.5351 8.60449C23.645 8.60449 26.5657 9.81282 28.7654 12.0167C30.9651 14.2205 32.1709 17.1468 32.1709 20.2628C32.1709 26.6846 26.9565 31.9103 20.5467 31.9103C18.6031 31.9128 16.6908 31.4235 14.9892 30.4885L8.81561 32.1115ZM15.2615 28.391L15.6162 28.6045C17.1042 29.4872 18.8037 29.9538 20.5357 29.9551C25.857 29.9551 30.1971 25.6064 30.1971 20.275C30.1971 17.6917 29.1922 15.2513 27.3711 13.4263C25.5486 11.6026 23.1127 10.5833 20.5344 10.5833C15.201 10.5833 10.8608 14.9321 10.8608 20.2635C10.8608 22.0885 11.3694 23.8776 12.3395 25.4173L12.5642 25.7853L11.5825 29.3635L15.2602 28.3917L15.2615 28.391Z" fill="url(#paint1_linear_356_7887)"/>
<path fill-rule="evenodd" clip-rule="evenodd" d="M17.6375 15.3814C17.4251 14.8955 17.1882 14.884 16.9873 14.884C16.8097 14.8718 16.6204 14.8718 16.4195 14.8718C16.2303 14.8718 15.911 14.9429 15.6393 15.2391C15.367 15.5353 14.6222 16.2346 14.6222 17.6686C14.6222 19.1019 15.6631 20.4885 15.8048 20.6776C15.9464 20.8673 17.8152 23.9006 20.7713 25.0737C23.2311 26.0449 23.728 25.8558 24.2604 25.7962C24.7922 25.7372 25.9747 25.0974 26.2232 24.4096C26.4595 23.7346 26.4595 23.1423 26.3887 23.0237C26.3178 22.9051 26.1164 22.834 25.8325 22.6801C25.537 22.5378 24.1182 21.8276 23.8458 21.7321C23.5742 21.6372 23.3849 21.5897 23.1957 21.8744C23.0064 22.1705 22.4508 22.8224 22.2732 23.0115C22.1077 23.2013 21.9307 23.225 21.6468 23.0827C21.3507 22.941 20.4172 22.6327 19.3048 21.6372C18.4422 20.8673 17.8628 19.9077 17.6852 19.6231C17.5197 19.3269 17.6613 19.1731 17.8152 19.0308C17.9452 18.9006 18.1113 18.6872 18.2529 18.5212C18.3946 18.3551 18.4416 18.225 18.5484 18.0353C18.6431 17.8462 18.5954 17.6679 18.5246 17.5263C18.4538 17.3955 17.8976 15.9622 17.6375 15.3814Z" fill="white"/>
<defs>
<linearGradient id="paint0_linear_356_7887" x1="20.4913" y1="31.7071" x2="20.4913" y2="9.01474" gradientUnits="userSpaceOnUse">
<stop stop-color="#20B038"/>
<stop offset="1" stop-color="#60D66A"/>
</linearGradient>
<linearGradient id="paint1_linear_356_7887" x1="20.4913" y1="32.1141" x2="20.4913" y2="8.60769" gradientUnits="userSpaceOnUse">
<stop stop-color="#F9F9F9"/>
<stop offset="1" stop-color="white"/>
</linearGradient>
</defs>
</svg>
